<svg version="1.2" xmlns="http://www.w3.org/2000/svg" width="787" height="787"><style>.s0{fill:#f2f2f2}.s1{fill:#3f3d56}.s2{fill:#20894d}.s3{fill:#2f2e41}.s4{fill:#fff}.s5{fill:#ffb6b6}.s6{fill:#e6e6e6}</style><g id="Layer"><circle id="svg_1" class="s0" cx="458.3" cy="181.2" r="26.7"/><path id="svg_2" class="s0" d="M544.6 648.8c-39.4-9.8-72.9-34.9-107.5-56-34.7-21.1-74.6-39.3-114.7-32.8-25.4 4.1-48.7 17.8-74.3 21.1-29.6 3.7-59.2-7-84.9-22.1C93.4 517.9 45.3 440.5 43.3 359.5c-1.9-81 44.1-162.2 116.4-198.9 72.2-36.6 167.3-24.5 225.6 31.8 35.3 34.1 55.8 80.4 82.4 121.7 26.6 41.3 64.4 80.8 113.2 86.8 24.9 3.1 50.9-2.8 74.7 4.9 28.4 9.2 47.8 36.5 55.7 65.3q.5 1.8.9 3.6c11.9 48.4-7.1 99.2-46.8 129.5-35.1 26.7-82.5 54.1-120.8 44.6z"/><path id="svg_4" class="s1" d="M786.8 542.3q-3.2 3.8-6.6 7.6-3.4 3.7-6.9 7.4-3.6 3.6-7.2 7.1-3.6 3.5-7.4 6.8l-730.6-1q-3.7-3.3-7.4-6.8-3.6-3.5-7.1-7.1-3.6-3.7-7-7.4L0 541.3z"/><path id="svg_5" class="s1" d="M495.7 447q.4-.7.9-1.3.6-.6 1.4-.9.7-.3 1.5-.3h127.1q.8 0 1.5.3.8.3 1.4.9.5.6.9 1.3.3.8.3 1.6v85.7q0 .8-.3 1.6-.4.7-.9 1.3-.6.6-1.4.9-.7.3-1.5.3H499.5q-.8 0-1.5-.3-.8-.3-1.4-.9-.5-.6-.9-1.3-.3-.8-.3-1.6v-85.7q0-.8.3-1.6z"/><path id="svg_6" class="s2" d="M498.6 448.8q.1-.4.5-.7.3-.3.7-.5.4-.1.8-.1h124.9q.4 0 .8.1.4.2.8.5.3.3.4.7.2.4.2.9v83.5q0 .5-.2.9-.1.4-.4.7-.4.3-.8.5-.4.1-.8.1H500.6q-.4 0-.8-.1-.4-.2-.7-.5-.4-.3-.5-.7-.2-.4-.2-.9v-83.5q0-.5.2-.9z"/><path id="svg_7" class="s3" d="M492.5 550.5q-.2-.2-.2-.5-.1-.2-.1-.5t.1-.6l2.1-10q0-.3.2-.6.1-.3.3-.5.2-.2.5-.4.2-.2.5-.3.1-.1.2-.1h.3q.1-.1.2-.1h132.2q.1 0 .2.1h.3q.1 0 .2.1.3.1.5.3.3.2.5.4t.3.5q.2.3.2.6l2.2 10q.1.6-.1 1.1-.1.6-.5 1-.3.5-.8.7-.5.2-1.1.2H494.2l-.6-.2q-.2-.1-.4-.3-.3-.2-.4-.4-.2-.2-.3-.5z"/><path id="svg_8" class="s1" d="M627.6 540.7c0 .3-.2.5-.4.5h-3.3c-.2 0-.4-.2-.4-.5v-1.5c0-.3.2-.5.4-.5h3.3c.2 0 .4.2.4.5z"/><path id="svg_9" class="s1" d="M619.3 540.7c0 .3-.3.5-.5.5h-3.2c-.3 0-.5-.2-.5-.5v-1.5c0-.3.2-.5.5-.5h3.2c.2 0 .5.2.5.5z"/><path id="svg_10" class="s1" d="M610.9 540.7c0 .3-.2.5-.5.5h-3.2c-.3 0-.5-.2-.5-.5v-1.5c0-.3.2-.5.5-.5h3.2c.3 0 .5.2.5.5z"/><path id="svg_11" class="s1" d="M602.5 540.7c0 .3-.2.5-.5.5h-3.2c-.3 0-.5-.2-.5-.5v-1.5c0-.3.2-.5.5-.5h3.2c.3 0 .5.2.5.5z"/><path id="svg_12" class="s1" d="M594.1 540.7c0 .3-.2.5-.5.5h-3.2c-.2 0-.5-.2-.5-.5v-1.5c0-.3.3-.5.5-.5h3.2c.3 0 .5.2.5.5z"/><path id="svg_13" class="s1" d="M585.8 540.7c0 .3-.3.5-.5.5h-3.2c-.3 0-.5-.2-.5-.5v-1.5c0-.3.2-.5.5-.5h3.2c.2 0 .5.2.5.5z"/><path id="svg_14" class="s1" d="M577.4 540.7c0 .3-.3.5-.5.5h-3.2c-.3 0-.5-.2-.5-.5v-1.5c0-.3.2-.5.5-.5h3.2c.2 0 .5.2.5.5z"/><path id="svg_15" class="s1" d="M569 540.7c0 .3-.2.5-.5.5h-3.2c-.3 0-.5-.2-.5-.5v-1.5c0-.3.2-.5.5-.5h3.2c.3 0 .5.2.5.5z"/><path id="svg_16" class="s1" d="M560.6 540.7c0 .3-.2.5-.5.5h-3.2c-.3 0-.5-.2-.5-.5v-1.5c0-.3.2-.5.5-.5h3.2c.3 0 .5.2.5.5z"/><path id="svg_17" class="s1" d="M552.2 540.7c0 .3-.2.5-.4.5h-3.3c-.2 0-.4-.2-.4-.5v-1.5c0-.3.2-.5.4-.5h3.3c.2 0 .4.2.4.5z"/><path id="svg_18" class="s1" d="M543.9 540.7c0 .3-.2.5-.5.5h-3.2c-.3 0-.5-.2-.5-.5v-1.5c0-.3.2-.5.5-.5h3.2c.3 0 .5.2.5.5z"/><path id="svg_19" class="s1" d="M535.5 540.7c0 .3-.2.5-.5.5h-3.2c-.3 0-.5-.2-.5-.5v-1.5c0-.3.2-.5.5-.5h3.2c.3 0 .5.2.5.5z"/><path id="svg_20" class="s1" d="M527.1 540.7c0 .3-.2.5-.5.5h-3.2c-.3 0-.5-.2-.5-.5v-1.5c0-.3.2-.5.5-.5h3.2c.3 0 .5.2.5.5z"/><path id="svg_21" class="s1" d="M518.7 540.7c0 .3-.2.5-.5.5H515c-.2 0-.5-.2-.5-.5v-1.5c0-.3.3-.5.5-.5h3.2c.3 0 .5.2.5.5z"/><path id="svg_22" class="s1" d="M510.4 540.7c0 .3-.3.5-.5.5h-3.2c-.3 0-.5-.2-.5-.5v-1.5c0-.3.2-.5.5-.5h3.2c.2 0 .5.2.5.5z"/><path id="svg_23" class="s1" d="M502 540.7c0 .3-.2.5-.5.5h-3.2c-.3 0-.5-.2-.5-.5v-1.5c0-.3.2-.5.5-.5h3.2c.3 0 .5.2.5.5z"/><path id="svg_24" class="s1" d="M627.7 544.9c0 .3-.2.5-.5.5H624c-.2 0-.5-.2-.5-.5v-1.5c0-.3.3-.5.5-.5h3.2c.3 0 .5.2.5.5z"/><path id="svg_25" class="s1" d="M619.4 544.9c0 .3-.3.5-.5.5h-3.2c-.3 0-.5-.2-.5-.5v-1.5c0-.3.2-.5.5-.5h3.2c.2 0 .5.2.5.5z"/><path id="svg_26" class="s1" d="M611 544.9c0 .3-.2.5-.5.5h-3.2c-.3 0-.5-.2-.5-.5v-1.5c0-.3.2-.5.5-.5h3.2c.3 0 .5.2.5.5z"/><path id="svg_27" class="s1" d="M602.6 544.9c0 .3-.2.5-.5.5h-3.2c-.3 0-.5-.2-.5-.5v-1.5c0-.3.2-.5.5-.5h3.2c.3 0 .5.2.5.5z"/><path id="svg_28" class="s1" d="M594.2 544.9c0 .3-.2.5-.5.5h-3.2c-.2 0-.5-.2-.5-.5v-1.5c0-.3.3-.5.5-.5h3.2c.3 0 .5.2.5.5z"/><path id="svg_29" class="s1" d="M585.8 544.9c0 .3-.2.5-.5.5h-3.2c-.2 0-.5-.2-.5-.5v-1.5c0-.3.3-.5.5-.5h3.2c.3 0 .5.2.5.5z"/><path id="svg_30" class="s1" d="M577.5 544.9c0 .3-.2.5-.5.5h-3.2c-.3 0-.5-.2-.5-.5v-1.5c0-.3.2-.5.5-.5h3.2c.3 0 .5.2.5.5z"/><path id="svg_31" class="s1" d="M569.1 544.9c0 .3-.2.5-.5.5h-3.2c-.3 0-.5-.2-.5-.5v-1.5c0-.3.2-.5.5-.5h3.2c.3 0 .5.2.5.5z"/><path id="svg_32" class="s1" d="M560.7 544.9c0 .3-.2.5-.5.5H557c-.3 0-.5-.2-.5-.5v-1.5c0-.3.2-.5.5-.5h3.2c.3 0 .5.2.5.5z"/><path id="svg_33" class="s1" d="M552.3 544.9c0 .3-.2.5-.4.5h-3.3c-.2 0-.4-.2-.4-.5v-1.5c0-.3.2-.5.4-.5h3.3c.2 0 .4.2.4.5z"/><path id="svg_34" class="s1" d="M544 544.9c0 .3-.3.5-.5.5h-3.2c-.3 0-.5-.2-.5-.5v-1.5c0-.3.2-.5.5-.5h3.2c.2 0 .5.2.5.5z"/><path id="svg_35" class="s1" d="M535.6 544.9c0 .3-.2.5-.5.5h-3.2c-.3 0-.5-.2-.5-.5v-1.5c0-.3.2-.5.5-.5h3.2c.3 0 .5.2.5.5z"/><path id="svg_36" class="s1" d="M527.2 544.9c0 .3-.2.5-.5.5h-3.2c-.3 0-.5-.2-.5-.5v-1.5c0-.3.2-.5.5-.5h3.2c.3 0 .5.2.5.5z"/><path id="svg_37" class="s1" d="M518.8 544.9c0 .3-.2.5-.5.5h-3.2c-.2 0-.5-.2-.5-.5v-1.5c0-.3.3-.5.5-.5h3.2c.3 0 .5.2.5.5z"/><path id="svg_38" class="s1" d="M510.5 544.9c0 .3-.3.5-.5.5h-3.2c-.3 0-.5-.2-.5-.5v-1.5c0-.3.2-.5.5-.5h3.2c.2 0 .5.2.5.5z"/><path id="svg_39" class="s1" d="M502.1 544.9c0 .3-.3.5-.5.5h-3.2c-.3 0-.5-.2-.5-.5v-1.5c0-.3.2-.5.5-.5h3.2c.2 0 .5.2.5.5z"/><path id="svg_40" class="s1" d="M587.5 550c0 .2-.2.4-.5.4h-32.5c-.3 0-.5-.2-.5-.4v-1.6c0-.2.2-.5.5-.5H587c.3 0 .5.3.5.5z"/><rect id="svg_41" class="s4" x="515.6" y="465.7" width="6" height="3.1" rx="1.6"/><rect id="svg_42" class="s4" x="548.2" y="465.7" width="6" height="3.1" rx="1.6"/><rect id="svg_43" class="s4" x="557.4" y="465.7" width="6" height="3.1" rx="1.6"/><rect id="svg_44" class="s4" x="524.5" y="465.5" width="20.8" height="3.1" rx="1.6"/><rect id="svg_45" class="s4" x="567.8" y="465.5" width="20.8" height="3.1" rx="1.6"/><rect id="svg_46" class="s4" x="524.3" y="472.8" width="6" height="3.1" rx="1.6"/><rect id="svg_47" class="s4" x="556.8" y="472.8" width="6" height="3.1" rx="1.6"/><rect id="svg_48" class="s4" x="566" y="472.8" width="6" height="3.1" rx="1.6"/><rect id="svg_49" class="s4" x="533.2" y="472.5" width="20.8" height="3.1" rx="1.6"/><rect id="svg_50" class="s4" x="576.5" y="472.5" width="20.8" height="3.1" rx="1.6"/><rect id="svg_51" class="s4" x="533" y="479.8" width="6" height="3.1" rx="1.6"/><rect id="svg_52" class="s4" x="565.5" y="479.8" width="6" height="3.1" rx="1.6"/><rect id="svg_53" class="s4" x="574.7" y="479.8" width="6" height="3.1" rx="1.6"/><rect id="svg_54" class="s4" x="541.8" y="479.6" width="20.8" height="3.1" rx="1.6"/><rect id="svg_55" class="s4" x="585.2" y="479.6" width="20.8" height="3.1" rx="1.6"/><rect id="svg_56" class="s4" x="541.6" y="486.9" width="6" height="3.1" rx="1.6"/><rect id="svg_57" class="s4" x="574.2" y="486.9" width="6" height="3.1" rx="1.6"/><rect id="svg_58" class="s4" x="583.4" y="486.9" width="6" height="3.1" rx="1.6"/><rect id="svg_59" class="s4" x="550.5" y="486.6" width="20.8" height="3.1" rx="1.6"/><rect id="svg_60" class="s4" x="548.2" y="514.9" width="6" height="3.1" rx="1.6"/><rect id="svg_61" class="s4" x="557.4" y="514.9" width="6" height="3.1" rx="1.6"/><rect id="svg_62" class="s4" x="567.8" y="515.2" width="20.8" height="3.1" rx="1.6"/><rect id="svg_63" class="s4" x="515.6" y="514.9" width="6" height="3.1" rx="1.6"/><rect id="svg_64" class="s4" x="524.5" y="515.2" width="20.8" height="3.1" rx="1.6"/><rect id="svg_65" class="s4" x="524.3" y="507.9" width="6" height="3.1" rx="1.6"/><rect id="svg_66" class="s4" x="556.8" y="507.9" width="6" height="3.1" rx="1.6"/><rect id="svg_67" class="s4" x="566" y="507.9" width="6" height="3.1" rx="1.6"/><rect id="svg_68" class="s4" x="533.2" y="508.1" width="20.8" height="3.1" rx="1.6"/><rect id="svg_69" class="s4" x="533" y="500.8" width="6" height="3.1" rx="1.6"/><rect id="svg_70" class="s4" x="565.5" y="500.8" width="6" height="3.1" rx="1.6"/><rect id="svg_71" class="s4" x="574.7" y="500.8" width="6" height="3.1" rx="1.6"/><rect id="svg_72" class="s4" x="541.8" y="501.1" width="20.8" height="3.1" rx="1.6"/><rect id="svg_73" class="s4" x="541.6" y="493.8" width="6" height="3.1" rx="1.6"/><rect id="svg_74" class="s4" x="574.2" y="493.8" width="6" height="3.1" rx="1.6"/><rect id="svg_75" class="s4" x="583.4" y="493.8" width="6" height="3.1" rx="1.6"/><rect id="svg_76" class="s4" x="550.5" y="494" width="20.8" height="3.1" rx="1.6"/><path id="svg_77" class="s5" d="m504.9 597.5-13.3-21.1 41.9-33.4 17.3-19.2c2.2-2.5 5.1-4.3 8.3-5.4 3.2-1 6.6-1.2 9.8-.5 3.3.7 6.4 2.2 8.9 4.5 2.5 2.2 4.3 5.1 5.4 8.2.8 2.4 1.1 4.8.9 7.3-.2 2.5-.8 4.9-1.9 7.1-1 2.2-2.5 4.2-4.3 5.8-1.9 1.7-4 3-6.3 3.8l-27.3 10.1z"/><path id="svg_78" fill-rule="evenodd" class="s3" d="M192 443.2q.2-.7.7-1.2.5-.5 1.1-.7.7-.3 1.4-.3H260.3q.2 0 .3.1h.3q.1 0 .2.1.5.1 1 .5.4.3.8.7.3.5.5 1 .1.5.1 1.1V547h-71.8V444.5q0-.7.3-1.3zm27.7 48.4c0 2 .9 4 2.3 5.4 1.4 1.4 3.4 2.3 5.4 2.3 2 0 4-.9 5.4-2.3 1.4-1.4 2.3-3.4 2.3-5.4v-11.9c0-2-.9-3.9-2.3-5.4-1.4-1.4-3.4-2.2-5.4-2.2-2 0-4 .8-5.4 2.2-1.4 1.5-2.3 3.4-2.3 5.4z"/><path id="svg_79" class="s1" d="M263.8 543.8v9.9q0 .3-.2.7-.1.3-.4.6-.3.3-.6.4-.4.2-.8.2h-68.4q-.4 0-.7-.2-.4-.1-.7-.4l-.4-.6q-.1-.4-.1-.7v-9.9z"/><path id="svg_80" class="s1" d="M79.4 286.5c.4-1.1 1.1-2.1 1.9-2.9.8-.8 1.8-1.5 2.9-1.9 1.1-.5 2.3-.7 3.5-.7h277.5c1.1 0 2.3.2 3.4.7 1.1.4 2.1 1.1 2.9 1.9.9.8 1.5 1.8 2 2.9.4 1.1.7 2.3.7 3.5v187.2c0 1.2-.3 2.4-.7 3.5-.5 1.1-1.1 2-2 2.9-.8.8-1.8 1.5-2.9 1.9-1.1.5-2.3.7-3.4.7H87.7c-1.2 0-2.4-.2-3.5-.7-1.1-.4-2.1-1.1-2.9-1.9-.8-.9-1.5-1.8-2-2.9-.4-1.1-.6-2.3-.6-3.5V290c0-1.2.2-2.4.7-3.5z"/><path id="svg_81" class="s4" d="M85.5 290.4q.4-.8 1.1-1.5.7-.7 1.5-1.1.9-.3 1.9-.3h272.8q1 0 1.9.3.9.4 1.6 1.1.6.7 1 1.5.4.9.4 1.9v182.6q0 1-.4 1.9-.4.8-1.1 1.5-.6.7-1.5 1.1-.9.3-1.9.3H90q-1 0-1.9-.3-.8-.4-1.5-1.1-.7-.7-1.1-1.5-.3-.9-.3-1.9V292.3q0-1 .3-1.9z"/><path id="svg_82" class="s3" d="M135.5 554.4q-.2-.3-.3-.7-.1-.3-.1-.6t.1-.7l2.5-11.9q.1-.4.3-.7.1-.4.4-.7l.5-.5q.3-.2.7-.3.1-.1.2-.1.2 0 .3-.1H298.5q.1.1.3.1.1 0 .2.1.4.1.7.3l.5.5q.3.3.4.7.2.3.3.7l2.5 11.9q.1.7 0 1.3-.2.7-.6 1.2-.4.5-1 .8-.7.3-1.3.3h-163q-.4-.1-.7-.3-.3-.1-.5-.3-.3-.2-.5-.5-.2-.2-.3-.5z"/><path id="svg_83" class="s1" d="M354 312.6H98.7q-.4 0-.7-.3-.3-.3-.3-.7 0-.4.3-.7.3-.3.7-.3H354q.4 0 .7.3.3.3.3.7 0 .4-.3.7-.3.3-.7.3z"/><ellipse id="svg_84" class="s1" cx="116.1" cy="299.3" rx="6" ry="6.1"/><ellipse id="svg_85" class="s1" cx="136.6" cy="299.3" rx="6" ry="6.1"/><ellipse id="svg_86" class="s1" cx="157.2" cy="299.3" rx="6" ry="6.1"/><path id="svg_87" class="s1" d="M342.4 295.1c.2.2.3.5.3.8 0 .2-.1.5-.3.7-.2.2-.5.4-.8.4H327c-.3 0-.5-.2-.7-.4-.3-.2-.4-.5-.4-.7 0-.3.1-.6.4-.8.2-.2.4-.3.7-.3h14.6c.3 0 .6.1.8.3z"/><path id="svg_88" class="s1" d="M342.4 299.2c.2.2.3.5.3.8 0 .3-.1.6-.3.8-.2.2-.5.3-.8.3H327c-.3 0-.5-.1-.7-.3-.3-.2-.4-.5-.4-.8 0-.3.1-.6.4-.8.2-.2.4-.3.7-.3h14.6c.3 0 .6.1.8.3z"/><path id="svg_89" class="s1" d="M342.4 303.4c.2.2.3.5.3.8 0 .2-.1.5-.3.7-.2.2-.5.4-.8.4H327c-.3 0-.5-.2-.7-.4-.3-.2-.4-.5-.4-.7 0-.3.1-.6.4-.8.2-.2.4-.3.7-.3h14.6c.3 0 .6.1.8.3z"/><path id="svg_90" fill-rule="evenodd" class="s3" d="M686.5 496.1q-.4-1.3-.3-2.7.2-1.4.9-2.6.7-1.1 1.8-1.9 1.1-.8 2.5-1.1h.2q.2-.1.3-.1h.5l40.7-1.1q.7 0 1.4.2.7.1 1.3.4.6.2 1.2.6.6.4 1 .9h.4q.3-.1.5-.1h.9c2.5-.1 5 .9 6.9 2.6 1.8 1.8 2.9 4.2 3 6.8 0 2.5-.9 5-2.7 6.9-1.8 1.8-4.2 2.9-6.8 3q-.5 0-1.1-.1-.5 0-1-.1-.6-.1-1.1-.3l-1-.4-3.7 40.1q-.3 1-.9 1.8-.6.9-1.4 1.5-.8.6-1.7 1-1 .3-2 .4l-26.5.6q-1 0-2-.2-1-.3-1.8-.9-.8-.6-1.5-1.4-.6-.8-.9-1.8zm51 8.6q.5.1.9.3.4.1.9.1h.8c1.9 0 3.6-.8 4.9-2.1 1.2-1.3 1.9-3.1 1.9-4.9-.1-1.9-.8-3.6-2.2-4.9-1.3-1.2-3.1-1.9-4.9-1.9-.1 0-.2.1-.4.1l.2.8q.1.4.1.9-.1.4-.1.8-.1.4-.2.9l-2.6 9.5q.3.2.7.4z"/><path id="svg_91" class="s1" d="M691.6 487.8q.2-.1.3-.1h.5l40.7-1.1h.5q.2.1.5.1.2 0 .4.1.3 0 .5.1c-1.6 4.5-10.5 8.3-21.2 8.8-11.8.6-21.5-2.9-22.4-7.9h.2z"/><path id="svg_92" class="s2" d="M715.9 526.1q-.2 0-.3-.1-.2 0-.3-.2v-.4l.2-.2 5.1-3.4-5.3-3.5q-.2-.1-.2-.3-.1-.2 0-.4l.4-.2q.2 0 .3.1l6 3.9.2.2v.5q-.1.1-.2.1l-5.7 3.8h-.1q0 .1-.1.1z"/><path id="svg_93" class="s2" d="M706.7 526.5h-.2l-.1-.1-5.9-3.4q-.1 0-.2-.1-.1-.2-.1-.3 0-.1.1-.2 0-.1.1-.2l5.8-4.3q.1-.1.3-.1l.4.2q.1.2.1.4-.1.2-.2.3l-5.2 3.8 5.3 3.1q.2.1.2.2.1.1.1.3 0 .1-.1.2-.1.2-.3.2h-.1z"/><path id="svg_94" class="s2" d="M715.2 529.4h-.2l-.1-.1q-.1-.1-.1-.2l-8.2-13.4q-.1-.1 0-.3 0-.2.2-.3.2-.2.4-.1.2 0 .3.2l8.1 13.4q.1.1.1.2v.2q0 .1-.1.2 0 .1-.1.1h-.1v.1h-.2z"/><rect id="svg_95" class="s2" x="209.4" y="367.8" width="50.7" height="10.8" rx="3.3"/><rect id="svg_96" class="s6" x="183.6" y="389.5" width="102.2" height="10.8" rx="3.3"/><rect id="svg_97" class="s6" x="183.6" y="411.2" width="102.2" height="10.8" rx="3.3"/><path id="svg_98" class="s1" d="m350.7 445.4 9.1-12.6q.7-1 1.7-1.9 1-.8 2.2-1.4 1.1-.6 2.4-.9 1.3-.3 2.6-.3l33.5.1q1.6 0 3.2.5t2.9 1.4q1.4 1 2.4 2.3 1 1.2 1.6 2.8l2.8 7 50.8 25.2.9.4.7 1.2-9.6 60.8-6.2 38.7s.7 6.5 1.6 16.8q.2 2.2.4 4.6c1.4 16.2 3.4 7.4 4.9 30.2.3 3.7-4.3 7.2-4.1 10.8.3 4.9 5.4 9.9 5.6 14.5.5 9.5.9 18.4 1 26q-6.9 1.6-13.9 3-6.9 1.3-13.9 2.2-7.1 1-14.1 1.6-7.1.5-14.2.7-3.8.2-7.7.2-1.9 0-3.8-.1h-1.2q-1.7 0-3.5-.1-8.5-.2-17-1-8.5-.9-17-2.2-8.4-1.4-16.8-3.3-8.3-1.9-16.5-4.3-.5-.1-.9-.3-2.2-.6-4.3-1.3-10-3.1-19.6-7c4.4-5.7 9.8-11.7 14.4-17.6 8-10.3 9.5 7.7 9.5 7.7l-3.2-11.9 2.9-7.3-1.1-53.7-.1-6.7-14.1-42.9-7.5-22.9-6.6-19.8v-.1l-.2-.7z"/><path id="svg_99" class="s1" d="m326.8 560.7-7.6 16.2-5.1 11.1-9 46.6-4.4 4.8-3.8-16.8-40 8.9c-1.3-7.3-.4.2-1.2-7.8l.7-.7c.6-.6 1.2-1.1 1.2-1.6-.5-27.6.9-74.6 12.3-103q.7-1.8 1.5-3.4.7-1.7 1.6-3.4.9-1.6 1.9-3.2 1-1.6 2-3.1.4-.5.7-.9c5.3-7.4 8.6-14.7 13.3-19.9h.1v-.1h.1l32.4-17.2 1.4 39.1 1 28.1z"/><path id="svg_100" class="s1" d="m465.9 467.6.9.4.7 1.2 12.1 19.8v.1c5 5.4 8.4 13.1 14.1 20.8 17.9 24.4 19.9 83.6 19.4 116.1-.1.5.5 1.1 1.1 1.7 1.5 1.3 2.8 3 3.8 4.8.9 1.8 1.6 3.8 1.9 5.8.3 2.1.2 4.1-.2 6.2-.4 2-1.2 3.9-2.2 5.7l-9.5-30.1-32.4 6.7-1.8.4-3.9 16.8-4.4-4.8-8.9-46.6-3.3-7.1-9.5-20.2z"/><circle id="a657ec4b-47ce-4d2a-9c58-81a811696ca9" class="s5" cx="386.4" cy="374.2" r="44.6"/><path id="svg_101" class="s3" d="M447.2 344q.2.5.3 1 .1.6 0 1.1l-.4 1c-2.5 4.4-4.2 8.4-9 11.4l-1.6.8q-.9.5-1.7.8-.8.4-1.7.7-.9.3-1.8.5-.7.2-1.5.4h-.1q-.1.1-.2.1h-.1q-.1 0-.2.1c-17.4 4.4 8.7 27.2-10.1 24.3.9 3.7 1.8 7.7 1.3 11.7-.5 4-1.6 6.7-6.5 11.3q0 .1-.1.1c-1 1-2.2 2-3.5 3.2-.8 1.6-3.5 2.6-7.4 3.1l-.4 2.6c-10.8 1.4-26.1 1.8-37.6-2.3-6.4-2.3-15.3-9.1-14-12.2.5-1-.8-2-2-2.7l.2.4c-1.1-.5-1.2-2.2-1.8-3-7.7-11.1-11.4-25.8-11-43.7.2-7.6 1-17.4 6.3-25.1 4.5-6.5 13.6-11.7 22-9.1-.4-3.4 1.9-6.8 4.6-8.5 3.2-1.9 7-2.3 10.4-2.6 8.6-.8 17.5-1.6 26.2 0 9.7 1.9 17.7 6.9 21.8 13.8l.1.2.8 4.1q.1.4.3.8.2.4.4.7.3.4.6.6.3.3.7.5.3.2.7.3.4.2.9.2h.8q.4-.1.8-.3.9-.3 1.8-.1.9.1 1.7.7.7.6 1 1.5.4.8.2 1.8l-.2 1.6 2.4-.5c.7-.1 1.3 0 1.9.2.6.2 1.1.5 1.5 1 .4.5.7 1.1.8 1.7.1.6 0 1.2-.2 1.8l-.7 1.9q.4 0 .8.1t.7.2q.3.2.7.4.3.2.5.5.4.4.6.9z"/><path id="svg_102" class="s3" d="M544 568.4c0 1.8 0 4.2-.1 7.3v1.3c-.2 5.5-.3 10.2-.5 15.4q0 .5-.1 1.1c-.2 7.2-.7 15.6-1.4 29-1.4 24.6-3.9 3.4-6.4 12q-.2.7-.3 1.6l-.4 1.6-.4 1.6q-.2.8-.5 1.5l-.6 1.6c-1.3.8-2.7 1.5-4 2.3q-5.7 3.1-11.5 6-3.3 1.7-6.6 3.2-.5.2-1 .5-4.3 1.9-8.5 3.7-4.3 1.8-8.7 3.5-4.3 1.7-8.7 3.2-4.4 1.5-8.9 2.8-3.5 1.1-7 2-3.6 1.1-7.3 2-6.9 1.6-13.9 3-6.9 1.3-14 2.2-7 1-14 1.6-7.1.5-14.2.7-3.8.2-7.7.2-1.9 0-3.8-.1h-1.2q-1.7 0-3.5-.1-8.5-.2-17-1-8.5-.9-17-2.2-8.4-1.4-16.8-3.3-8.3-1.9-16.5-4.3l-.9-.3q-2.2-.6-4.3-1.3-9.9-3.1-19.6-7-7.3-3-14.5-6.4h-.1l-3-1.4q-.2-.1-.4-.3-5.6-2.7-11.1-5.7c-3-7-7.4-8.4-10-14.6l-.6-1.4-.4-1.4q-.3-.7-.4-1.4-.2-.8-.3-1.5v-.1c.3 3.7-1.2-6.6 0 0q-.1-.2-.1-.4 0-.6-.1-1.4c-3.4-33.5-3.2-71.8-4.7-103.3q-.1-3.1-.3-5.9-.1-.9-.1-1.8l.2-.6h.1v-.2h.1v-.1l.1-.1v-.1q.1-.2.3-.4l.2-.2v-.1h.1v-.1h.1v-.1l.1-.1q.1 0 .1-.1h.1v-.1l.1-.1h.1q.1-.1.2-.3.2-.1.3-.2.1-.1.3-.2.1-.1.3-.2.2-.2.4-.3l.8-.4.8-.4.8-.4q.4-.2.8-.3l1.2-.4.4-.2q.3-.1.7-.2 1.7-.5 3.7-.9.2 0 .5-.1.3 0 .7-.1.5-.1 1.1-.2 4.4-.7 10-1 .5-.1 1.1-.1h1.2q.5-.1 1.1-.1h1.1q1.5-.1 3.1-.1 4.5-.1 9.5 0 2.3.1 4.8.2h.3q2.1.1 4.3.2 1.5 0 3 .1l3 .2q1.1.1 2.3.2 1 .1 2 .1l.9.1q.7 0 1.5.1 1.6.1 3.3.3 1.6.1 3.3.3 1.7.1 3.5.3h.3q1.5.2 3.1.3.4.1.8.1 1.5.2 3 .3.4.1.9.1 1.2.2 2.4.3c1 .1 2.1.2 3.1.4q1.3.1 2.5.2 1.9.3 3.8.5.8.1 1.5.2 5.5.7 11.2 1.5 8.6 1.2 17.4 2.6 8.8 1.5 17.7 3.1 2.2.4 4.5.8l2 .4q1.8.3 3.5.6 1.8.3 3.5.7l4.2.8c9 1.8 18.1 3.7 26.9 5.7q2.2.5 4.3 1 4.4 1 8.6 2.1 1.2.2 2.3.5 2.9.7 5.8 1.5l.3.1q2.1.5 4.1 1 4.8 1.3 9.5 2.6 3.1.8 6.1 1.7 4.5 1.3 8.8 2.6 1.1.4 2.1.7 3.2 1 6.2 2 2.4.7 4.7 1.5 2.3.8 4.5 1.6 1.5.5 2.9 1.1 2 .7 3.9 1.5l1.2.4q.4.2.8.3l1.4.6 1.4.6q.6.2 1.3.5.7.3 1.3.6.6.2 1.1.5 1.1.4 2.1.9.5.2 1 .5l.8.3.4.2q.3.2.7.4.9.4 1.7.8 1.1.6 2.2 1.1 1.1.6 2.1 1.1.1.1.3.2.2.2.4.3.8.4 1.5.9 1.5.8 2.7 1.7l.6.4q.9.7 1.8 1.3.3.3.6.5l.4.4q.8.6 1.5 1.3l.1.1.1.1.1.1q0 .1.1.1v.1h.1v.1l.6.6q0 .1.1.1l.6.8q.2.2.3.4.2.3.4.5.1.3.2.5.1.1.2.3 0 .1.1.2.1.2.1.3.1.2.2.3v.2q.1.1.1.2t.1.2v.2q.1.1.1.2v.2q0 .1.1.2v.2z"/><path id="svg_103" d="M544 568.4c0 1.8 0 4.2-.1 7.3q0 .6-.1 1.3c-.1 4.2-.2 9.5-.4 15.4q0 .5-.1 1.1c-.2 7.2-.7 15.6-1.4 29-1.4 24.6-3.9 3.4-6.4 12-6.8-4.2-14.4-8.6-22.4-13.2l-4.4-2.4c-16.1-9-34-18.4-52.8-27.7q-1.1-.6-2.2-1.1c-43-21.2-89.8-41.9-127.8-55.7-7.3-2.6-14.3-5-20.9-7.1-13.9-4.5-25.9-7.6-35.1-8.9-9.6-1.4-16.2-.9-18.9 2q-.1-3.1-.3-5.9-.1-.9-.1-1.8.1-.3.2-.5v-.1h.1v-.2h.1v-.2h.1v-.1q.1-.2.3-.4 0-.1.1-.1v-.1q.1 0 .1-.1h.1v-.1h.1v-.1l.1-.1q.1 0 .1-.1h.1v-.1l.1-.1h.1q.1-.1.2-.3.2-.1.3-.2.1-.1.3-.2.1-.1.3-.2.2-.2.4-.3l.8-.4.8-.4.8-.4q.4-.2.8-.3l1.2-.4.4-.2q.3-.1.7-.2 1.7-.5 3.7-.9l1.2-.2q.5-.1 1.1-.2 4.4-.7 10-1 .5-.1 1.1-.1h1.2q.5-.1 1.1-.1h1.1q1.5-.1 3.1-.1 4.5-.1 9.5 0 2.3.1 4.8.2h.3q2.1.1 4.3.2 1.5 0 3 .1l3 .2q1.1.1 2.3.2 1 .1 2 .1l2.4.2q1.6.1 3.3.3 1.6.1 3.3.3 1.7.1 3.5.3h.3q1.5.2 3.1.3 8.8.9 18 2.1 5.5.7 11.2 1.5 8.6 1.2 17.4 2.6 8.8 1.5 17.7 3.1 2.2.4 4.5.8 2.8.5 5.5 1 1.8.3 3.5.7l4.2.8c9 1.8 18.1 3.7 26.9 5.7q2.2.5 4.3 1 4.4 1 8.6 2.1 1.2.3 2.3.5 2.9.8 5.8 1.5.1 0 .3.1 2.1.5 4.1 1 4.8 1.3 9.5 2.6 3.1.8 6.1 1.7 4.5 1.3 8.8 2.6 1.1.4 2.1.7 3.2 1 6.2 2 2.4.7 4.7 1.5 2.3.8 4.5 1.6 1.5.5 2.9 1.1 2 .7 3.9 1.5l1.2.4q1.1.4 2.2.9l1.4.6q.6.2 1.3.5.7.3 1.3.6.6.2 1.1.5 1.1.4 2.1.9.5.2 1 .5l.8.3.4.2 2.4 1.2q1.1.6 2.2 1.1 1.2.7 2.4 1.3.2.2.4.3.8.4 1.5.9 1.5.8 2.7 1.7 1.3.9 2.4 1.7.5.5 1 .9.8.6 1.5 1.3l.1.1.1.1.1.1q0 .1.1.1v.1h.1v.1l.7.7.6.8q.2.2.3.4.2.3.4.5.1.3.2.5.1.1.2.3 0 .1.1.2.1.2.1.3.1.2.2.3v.2q.1.1.1.2t.1.2v.2q.1.1.1.2v.2q0 .1.1.2v.2z" style="opacity:.2;fill:#000"/></g></svg>